{"title":"Elementary S02E11 HDTV 480p x264 AAC [GWC].mp4","uid":9340270,"size":145498375,"categoryP":"video","categoryS":"tv_shows","magnet":"?xt=urn:btih:364826acb291df382918fb59f9ac54483c16dafe&amp;dn=Elementary+S02E11+HDTV+480p+x264+AAC+%5BGWC%5D.mp4&amp;tr=udp%3A%2F%2Ftracker.openbittorrent.com%3A80&amp;tr=udp%3A%2F%2Fopen.demonii.com%3A1337&amp;tr=udp%3A%2F%2Ftracker.coppersurfer.tk%3A6969&amp;tr=udp%3A%2F%2Fexodus.desync.com%3A6969","seeders":1,"leechers":0,"uploader":"canc232","files":1,"time":1386918821,"description":"Elementary S02E11 HDTV 480p x264 AAC [GWC]\n\n\nSCREENS :\n &lt;a href=&quot;\nhttp://s20.postimg.org/lga0gtdrx/elementary_211_hdtv_11_29_13.jpg&quot; rel=&quot;nofollow&quot; target=&quot;_NEW&quot;&gt;\nhttp://s20.postimg.org/lga0gtdrx/elementary_211_hdtv_11_29_13.jpg&lt;/a&gt;\n &lt;a href=&quot;\nhttp://s20.postimg.org/umsb43j0d/elementary_211_hdtv_11_29_16.jpg&quot; rel=&quot;nofollow&quot; target=&quot;_NEW&quot;&gt;\nhttp://s20.postimg.org/umsb43j0d/elementary_211_hdtv_11_29_16.jpg&lt;/a&gt;\n &lt;a href=&quot;\nhttp://s20.postimg.org/oxc2jscu5/elementary_211_hdtv_11_29_38.jpg&quot; rel=&quot;nofollow&quot; target=&quot;_NEW&quot;&gt;\nhttp://s20.postimg.org/oxc2jscu5/elementary_211_hdtv_11_29_38.jpg&lt;/a&gt;\n\n\n\nMEDIA INFO :\n\nGeneral \nFormat : MPEG-4 \nFormat profile : Base Media\nFile size : 139 MiB \nDuration : 43mn 30s \nOverall bit rate mode : Variable \nOverall bit rate : 446 Kbps\n\nVideo\nFormat : AVC \nFormat profile : &lt;a class=&quot;__cf_email__&quot; href=&quot;/cdn-cgi/l/email-protection&quot; data-cfemail=&quot;0b43626c634b4738253b&quot;&gt;[email&amp;#160;protected]&lt;/a&gt;&lt;script data-cfhash='f9e31' type=&quot;text/javascript&quot;&gt;\n/* &lt;![CDATA[ */!function(){try{var t=&quot;currentScript&quot;in document?document.currentScript:function(){for(var t=document.getElementsByTagName(&quot;script&quot;),e=t.length;e--;)if(t[e].getAttribute(&quot;data-cfhash&quot;))return t[e]}();if(t&amp;&amp;t.previousSibling){var e,r,n,i,c=t.previousSibling,a=c.getAttribute(&quot;data-cfemail&quot;);if(a){for(e=&quot;&quot;,r=parseInt(a.substr(0,2),16),n=2;a.length-n;n+=2)i=parseInt(a.substr(n,2),16)^r,e+=String.fromCharCode(i);e=document.createTextNode(e),c.parentNode.replaceChild(e,c)}t.parentNode.removeChild(t);}}catch(u){}}()/* ]]&gt; */&lt;/script&gt; \nFormat settings, CABAC : Yes \nFormat settings, ReFrames : 5 frames\nDuration : 43mn 30s \nBit rate : 382 Kbps\nWidth : 720 pixels \nHeight : 404 pixels \nDisplay aspect ratio : 16:9 \nFrame rate : 23.976 fps \nStream size : 119 MiB (86%) \nTitle : Elementary S02E11 HDTV x264 AAC [GWC] \nWriting library : x264 core\nLanguage : English \n\nAudio \nFormat : AAC \nFormat profile : HE-AAC / LC \nDuration : 43mn 30s \nBit rate mode : Variable \nChannel(s) : 2 channels \nSampling rate : 48.0 KHz / 24.0 KHz \nStream size : 18.6 MiB \nLanguage : English ","torrent":{"xt":"urn:btih:364826acb291df382918fb59f9ac54483c16dafe","amp;dn":"Elementary+S02E11+HDTV+480p+x264+AAC+%5BGWC%5D.mp4","amp;tr":["udp%3A%2F%2Ftracker.openbittorrent.com%3A80","udp%3A%2F%2Fopen.demonii.com%3A1337","udp%3A%2F%2Ftracker.coppersurfer.tk%3A6969","udp%3A%2F%2Fexodus.desync.com%3A6969"],"infoHash":"364826acb291df382918fb59f9ac54483c16dafe","infoHashBuffer":{"type":"Buffer","data":[54,72,38,172,178,145,223,56,41,24,251,89,249,172,84,72,60,22,218,254]},"announce":[],"urlList":[]}}